grf
version=1
nRows=62
nColumns=19
inDegrees=yes
endheader
time	ground_force_1_vx	ground_force_1_vy	ground_force_1_vz	ground_force_1_px	ground_force_1_py	ground_force_1_pz	ground_moment_1_mx	ground_moment_1_my	ground_moment_1_mz	ground_force_2_vx	ground_force_2_vy	ground_force_2_vz	ground_force_2_px	ground_force_2_py	ground_force_2_pz	ground_moment_2_mx	ground_moment_2_my	ground_moment_2_mz
0.000000	-8.995573	1339.078010	-426.731737	0.213671	0.000000	-0.772958	0.000000	21.801852	0.000000	10.607193	1511.459998	481.073360	0.224450	0.000000	-1.582923	-0.000000	-10.988129	-0.000000
0.001000	-8.976753	1339.281126	-427.509493	0.213974	0.000000	-0.773232	0.000000	21.730358	0.000000	10.477214	1510.657034	480.900599	0.224514	0.000000	-1.583392	-0.000000	-10.989079	-0.000000
0.002000	-8.961601	1339.520404	-428.309395	0.214256	0.000000	-0.772237	0.000000	21.658218	0.000000	10.338595	1509.836279	480.718643	0.224811	0.000000	-1.583323	-0.000000	-10.990210	-0.000000
0.003000	-8.950911	1339.795836	-429.126968	0.213587	0.000000	-0.772262	0.000000	21.586029	0.000000	10.191215	1509.003024	480.527862	0.224975	0.000000	-1.582684	-0.000000	-10.991511	-0.000000
0.004000	-8.945412	1340.107940	-429.958050	0.214149	0.000000	-0.772261	0.000000	21.514318	0.000000	10.034938	1508.161657	480.328650	0.225323	0.000000	-1.581674	-0.000000	-10.992936	-0.000000
0.005000	-8.945819	1340.457878	-430.798849	0.214378	0.000000	-0.771735	0.000000	21.443540	0.000000	9.869652	1507.315931	480.121414	0.224920	0.000000	-1.583978	-0.000000	-10.994407	-0.000000
0.006000	-8.952866	1340.847359	-431.645918	0.214158	0.000000	-0.770924	0.000000	21.374074	0.000000	9.695346	1506.469628	479.906650	0.224649	0.000000	-1.583239	-0.000000	-10.995822	-0.000000
0.007000	-8.967317	1341.278170	-432.496164	0.213540	0.000000	-0.771739	0.000000	21.306224	0.000000	9.512110	1505.626657	479.684999	0.224270	0.000000	-1.583543	-0.000000	-10.997055	-0.000000
0.008000	-8.989981	1341.751877	-433.346857	0.214102	0.000000	-0.772145	0.000000	21.240245	0.000000	9.320080	1504.790185	479.457188	0.224146	0.000000	-1.583927	-0.000000	-10.997989	-0.000000
0.009000	-9.021706	1342.269904	-434.195651	0.213485	0.000000	-0.772299	0.000000	21.176369	0.000000	9.119417	1503.961479	479.223959	0.224963	0.000000	-1.583170	-0.000000	-10.998550	-0.000000
0.010000	-9.063332	1342.833681	-435.040566	0.215100	0.000000	-0.772223	0.000000	21.114799	0.000000	8.910306	1503.139586	478.986070	0.225943	0.000000	-1.585233	-0.000000	-10.998711	-0.000000
0.011000	-9.115572	1343.445089	-435.879940	0.213744	0.000000	-0.773996	0.000000	21.055670	0.000000	8.692978	1502.322026	478.744372	0.224408	0.000000	-1.581993	-0.000000	-10.998470	-0.000000
0.012000	-9.178917	1344.106985	-436.712383	0.214151	0.000000	-0.771642	0.000000	20.999009	0.000000	8.467724	1501.505843	478.499866	0.225490	0.000000	-1.582818	-0.000000	-10.997827	-0.000000
0.013000	-9.253684	1344.822781	-437.536744	0.213943	0.000000	-0.770601	0.000000	20.944779	0.000000	8.234867	1500.688637	478.253647	0.224962	0.000000	-1.583754	-0.000000	-10.996796	-0.000000
0.014000	-9.340162	1345.595550	-438.352103	0.214209	0.000000	-0.771440	0.000000	20.892945	0.000000	7.994757	1499.869008	478.006813	0.225803	0.000000	-1.584197	-0.000000	-10.995406	-0.000000
0.015000	-9.438672	1346.427686	-439.157741	0.214547	0.000000	-0.771769	0.000000	20.843510	0.000000	7.747778	1499.046390	477.760427	0.225382	0.000000	-1.583652	-0.000000	-10.993691	-0.000000
0.016000	-9.549522	1347.321194	-439.953124	0.214138	0.000000	-0.770933	0.000000	20.796496	0.000000	7.494384	1498.220921	477.515522	0.225303	0.000000	-1.586755	-0.000000	-10.991685	-0.000000
0.017000	-9.672926	1348.278184	-440.737905	0.214067	0.000000	-0.771645	0.000000	20.751916	0.000000	7.235104	1497.393274	477.273082	0.225740	0.000000	-1.584137	-0.000000	-10.989448	-0.000000
0.018000	-9.808958	1349.301090	-441.511926	0.213690	0.000000	-0.769588	0.000000	20.709769	0.000000	6.970515	1496.564221	477.034000	0.226566	0.000000	-1.585555	-0.000000	-10.987074	-0.000000
0.019000	-9.957552	1350.392198	-442.275181	0.213062	0.000000	-0.770283	0.000000	20.670064	0.000000	6.701237	1495.734203	476.799106	0.226402	0.000000	-1.584611	-0.000000	-10.984663	-0.000000
0.020000	-10.118501	1351.552471	-443.027797	0.214909	0.000000	-0.770017	0.000000	20.632829	0.000000	6.427918	1494.903136	476.569226	0.226120	0.000000	-1.583656	-0.000000	-10.982287	-0.000000
0.021000	-10.291460	1352.780905	-443.770055	0.214885	0.000000	-0.770628	0.000000	20.598095	0.000000	6.151168	1494.070353	476.345176	0.225863	0.000000	-1.583476	-0.000000	-10.979979	-0.000000
0.022000	-10.475949	1354.075257	-444.502421	0.215372	0.000000	-0.771770	0.000000	20.565847	0.000000	5.871542	1493.234529	476.127671	0.226817	0.000000	-1.583647	-0.000000	-10.977752	-0.000000
0.023000	-10.671362	1355.432945	-445.225520	0.214243	0.000000	-0.771718	0.000000	20.536014	0.000000	5.589703	1492.393750	475.917262	0.226771	0.000000	-1.584218	-0.000000	-10.975590	-0.000000
0.024000	-10.876910	1356.851194	-445.940003	0.214447	0.000000	-0.771886	0.000000	20.508506	0.000000	5.306541	1491.545971	475.714328	0.226732	0.000000	-1.584555	-0.000000	-10.973407	-0.000000
0.025000	-11.091607	1358.327112	-446.646393	0.214786	0.000000	-0.771681	0.000000	20.483258	0.000000	5.023056	1490.689409	475.519110	0.226702	0.000000	-1.583915	-0.000000	-10.971053	-0.000000
0.026000	-11.314338	1359.857966	-447.345072	0.214181	0.000000	-0.771180	0.000000	20.460237	0.000000	4.740180	1489.822400	475.331763	0.226887	0.000000	-1.584960	-0.000000	-10.968340	-0.000000
0.027000	-11.543956	1361.440908	-448.036398	0.215487	0.000000	-0.770312	0.000000	20.439430	0.000000	4.458739	1488.943458	475.152385	0.226739	0.000000	-1.584487	-0.000000	-10.965066	-0.000000
0.028000	-11.779283	1363.072121	-448.720843	0.215137	0.000000	-0.771140	0.000000	20.420814	0.000000	4.179461	1488.051870	474.981051	0.226962	0.000000	-1.584673	-0.000000	-10.961030	-0.000000
0.029000	-12.018987	1364.746685	-449.399013	0.214330	0.000000	-0.772975	0.000000	20.404292	0.000000	3.902977	1487.147894	474.817841	0.227264	0.000000	-1.584148	-0.000000	-10.956049	-0.000000
0.030000	-12.261490	1366.459494	-450.071538	0.214640	0.000000	-0.771082	-0.000000	20.389655	0.000000	3.629844	1486.232333	474.662807	0.227176	0.000000	-1.584702	-0.000000	-10.949946	-0.000000
0.031000	-12.505021	1368.205765	-450.738967	0.214276	0.000000	-0.771091	-0.000000	20.376625	0.000000	3.360596	1485.306106	474.515887	0.226313	0.000000	-1.582797	-0.000000	-10.942547	-0.000000
0.032000	-12.747704	1369.980604	-451.401748	0.213290	0.000000	-0.770949	-0.000000	20.364916	0.000000	3.095712	1484.370282	474.376859	0.227143	0.000000	-1.584982	-0.000000	-10.933709	-0.000000
0.033000	-12.987579	1371.778824	-452.060242	0.214310	0.000000	-0.772447	-0.000000	20.354272	0.000000	2.835499	1483.426319	474.245345	0.227675	0.000000	-1.584858	-0.000000	-10.923394	-0.000000
0.034000	-13.222635	1373.595526	-452.714760	0.215164	0.000000	-0.772905	-0.000000	20.344476	0.000000	2.580116	1482.475802	474.120866	0.227476	0.000000	-1.585448	-0.000000	-10.911693	-0.000000
0.035000	-13.450898	1375.426909	-453.365667	0.212871	0.000000	-0.773744	-0.000000	20.335333	0.000000	2.329730	1481.520125	474.002900	0.228520	0.000000	-1.584288	-0.000000	-10.898775	-0.000000
0.036000	-13.670550	1377.270771	-454.013499	0.214220	0.000000	-0.770798	-0.000000	20.326650	0.000000	2.084507	1480.561082	473.890879	0.227495	0.000000	-1.585024	-0.000000	-10.884792	-0.000000
0.037000	-13.879991	1379.126117	-454.658928	0.214060	0.000000	-0.771285	-0.000000	20.318266	0.000000	1.844476	1479.601536	473.784146	0.227219	0.000000	-1.587170	-0.000000	-10.869851	-0.000000
0.038000	-14.077786	1380.992071	-455.302598	0.214125	0.000000	-0.770653	-0.000000	20.310058	0.000000	1.609533	1478.644844	473.681902	0.227451	0.000000	-1.585364	-0.000000	-10.854039	-0.000000
0.039000	-14.262558	1382.867031	-455.945094	0.214411	0.000000	-0.771001	-0.000000	20.301919	0.000000	1.379503	1477.694002	473.583168	0.228120	0.000000	-1.584849	-0.000000	-10.837462	-0.000000
0.040000	-14.432902	1384.748564	-456.587036	0.214417	0.000000	-0.772431	-0.000000	20.293721	0.000000	1.154176	1476.751625	473.486785	0.228327	0.000000	-1.584728	-0.000000	-10.820249	-0.000000
0.041000	-14.587422	1386.633885	-457.229117	0.214072	0.000000	-0.771738	-0.000000	20.285316	0.000000	0.933326	1475.820147	473.391440	0.228259	0.000000	-1.586753	-0.000000	-10.802521	-0.000000
0.042000	-14.724837	1388.520345	-457.872094	0.214001	0.000000	-0.771801	-0.000000	20.276558	0.000000	0.716707	1474.901703	473.295716	0.228269	0.000000	-1.584756	-0.000000	-10.784378	-0.000000
0.043000	-14.844082	1390.405540	-458.516788	0.213399	0.000000	-0.772703	-0.000000	20.267332	0.000000	0.504059	1473.998032	473.198117	0.228751	0.000000	-1.583206	-0.000000	-10.765906	-0.000000
0.044000	-14.944348	1392.287263	-459.164042	0.215003	0.000000	-0.770584	-0.000000	20.257581	0.000000	0.295173	1473.110731	473.097085	0.228573	0.000000	-1.584550	-0.000000	-10.747193	-0.000000
0.045000	-15.025033	1394.163403	-459.814603	0.213640	0.000000	-0.772427	-0.000000	20.247286	0.000000	0.089940	1472.241464	472.991040	0.228394	0.000000	-1.586797	-0.000000	-10.728330	-0.000000
0.046000	-15.085645	1396.031628	-460.469043	0.213431	0.000000	-0.771260	-0.000000	20.236434	0.000000	-0.111705	1471.391581	472.878451	0.228429	0.000000	-1.585823	-0.000000	-10.709401	-0.000000
0.047000	-15.125728	1397.889096	-461.127813	0.214434	0.000000	-0.771580	-0.000000	20.224997	0.000000	-0.309868	1470.561832	472.757878	0.228977	0.000000	-1.585834	-0.000000	-10.690491	-0.000000
0.048000	-15.144907	1399.732810	-461.791338	0.213869	0.000000	-0.771625	-0.000000	20.212928	0.000000	-0.504711	1469.752622	472.627982	0.228747	0.000000	-1.585533	0.000000	-10.671690	-0.000000
0.049000	-15.142992	1401.560352	-462.460000	0.214166	0.000000	-0.771731	-0.000000	20.200187	0.000000	-0.696443	1468.964046	472.487567	0.229274	0.000000	-1.585584	0.000000	-10.653075	-0.000000
0.050000	-15.120016	1403.369787	-463.134031	0.213744	0.000000	-0.769407	-0.000000	20.186752	0.000000	-0.885329	1468.195738	472.335597	0.228375	0.000000	-1.584827	0.000000	-10.634702	-0.000000
0.051000	-15.076252	1405.158920	-463.813409	0.213570	0.000000	-0.771936	-0.000000	20.172612	0.000000	-1.071699	1467.446970	472.171195	0.229138	0.000000	-1.585420	0.000000	-10.616610	-0.000000
0.052000	-15.012195	1406.925127	-464.497846	0.213587	0.000000	-0.771461	-0.000000	20.157758	0.000000	-1.255899	1466.716746	471.993633	0.228782	0.000000	-1.585598	0.000000	-10.598839	-0.000000
0.053000	-14.928534	1408.665599	-465.186833	0.213322	0.000000	-0.772084	-0.000000	20.142170	0.000000	-1.438214	1466.003655	471.802320	0.229700	0.000000	-1.586056	0.000000	-10.581434	-0.000000
0.054000	-14.826119	1410.377435	-465.879705	0.213371	0.000000	-0.772062	-0.000000	20.125810	0.000000	-1.618876	1465.305701	471.596799	0.228597	0.000000	-1.584097	0.000000	-10.564445	-0.000000
0.055000	-14.705921	1412.057700	-466.575671	0.212683	0.000000	-0.773250	-0.000000	20.108644	0.000000	-1.798137	1464.620540	471.376760	0.229812	0.000000	-1.585982	0.000000	-10.547922	-0.000000
0.056000	-14.568946	1413.703659	-467.273710	0.213515	0.000000	-0.771732	-0.000000	20.090657	0.000000	-1.976307	1463.946037	471.142082	0.229357	0.000000	-1.584560	0.000000	-10.531928	-0.000000
0.057000	-14.416144	1415.313042	-467.972471	0.213016	0.000000	-0.772051	-0.000000	20.071880	0.000000	-2.153719	1463.280705	470.892812	0.229566	0.000000	-1.586210	0.000000	-10.516529	-0.000000
0.058000	-14.248381	1416.884226	-468.670351	0.212418	0.000000	-0.772815	-0.000000	20.052379	0.000000	-2.330667	1462.623825	470.629138	0.229228	0.000000	-1.585758	0.000000	-10.501789	-0.000000
0.059000	-14.066466	1418.416495	-469.365707	0.213275	0.000000	-0.771771	-0.000000	20.032244	0.000000	-2.507374	1461.975162	470.351380	0.230147	0.000000	-1.585980	0.000000	-10.487782	-0.000000
0.060000	-13.871202	1419.910104	-470.056987	0.213172	0.000000	-0.771996	-0.000000	20.011578	0.000000	-2.684019	1461.334680	470.059940	0.229977	0.000000	-1.585363	0.000000	-10.474584	-0.000000
0.061000	-13.663415	1421.365907	-470.742736	0.213062	0.000000	-0.772196	-0.000000	19.990484	0.000000	-2.860779	1460.702794	469.755224	0.230494	0.000000	-1.585993	0.000000	-10.462258	-0.000000
